<?xml version="1.0" encoding="utf-8"?>
<!-- Generator: Adobe Illustrator 25.0.0, SVG Export Plug-In . SVG Version: 6.00 Build 0)  -->
<svg version="1.1" id="Calque_1" xmlns="http://www.w3.org/2000/svg" xmlns:xlink="http://www.w3.org/1999/xlink" x="0px" y="0px"
	 viewBox="0 0 241.5 164.5" style="enable-background:new 0 0 241.5 164.5;" xml:space="preserve">
<style type="text/css">
	.st0{fill:#FFFFFF;}
</style>
<g>
	<path class="st0" d="M44.2,53.5v6h152.9v-6H44.2z"/>
	<path class="st0" d="M198.1,60.4H43.2v-8h154.9V60.4z M45.2,58.4h150.9v-4H45.2V58.4z"/>
</g>
<g>
	<path class="st0" d="M2.1,151v6h237v-6H2.1z"/>
	<path class="st0" d="M239.6,157.5H1.6v-7h238V157.5z M2.6,156.5h236v-5H2.6V156.5z"/>
</g>
<g>
	<path class="st0" d="M2.4,104.5v6h237v-6H2.4z"/>
	<path class="st0" d="M240.4,111.5H1.4v-8h239V111.5z M3.4,109.5h235v-4H3.4V109.5z"/>
</g>
<g>
	<path class="st0" d="M8.1,104.5h-6v59h6V104.5z"/>
	<path class="st0" d="M9.1,164.5h-8v-61h8V164.5z M3.2,162.5h4v-57h-4V162.5z"/>
</g>
<g>
	<path class="st0" d="M239.4,104.4h-6v59h6V104.4z"/>
	<path class="st0" d="M239.9,163.9h-7v-60h7V163.9z M233.9,162.9h5v-58h-5V162.9z"/>
</g>
<g>
	<path class="st0" d="M197.1,53.5H191l42.4,51h6L197.1,53.5z"/>
	<path class="st0" d="M241.5,105.5h-8.6l-44.1-53h8.7L241.5,105.5z M233.9,103.5h3.4l-40.7-49h-3.5L233.9,103.5z"/>
</g>
<g>
	<path class="st0" d="M2.1,104.5h6l42.1-51h-5.7L2.1,104.5z"/>
	<path class="st0" d="M8.6,105.5H0l44-53h8.3L8.6,105.5z M4.3,103.5h3.4l40.4-49h-3.1L4.3,103.5z"/>
</g>
<g>
	<path class="st0" d="M38.3,1v6h164.9V1H38.3z"/>
	<path class="st0" d="M204.2,8H37.3V0h166.9V8z M39.3,6h162.9V2H39.3V6z"/>
</g>
<g>
	<path class="st0" d="M50.2,1h-6v52.5h6V1z"/>
	<path class="st0" d="M51.2,54.5h-8V0h8V54.5z M45.2,52.5h4V2h-4V52.5z"/>
</g>
<g>
	<path class="st0" d="M196.9,1h-6v52.5h6V1z"/>
	<path class="st0" d="M197.9,54.5h-8V0h8V54.5z M192,52.5h4V2h-4V52.5z"/>
</g>
<g>
	<path class="st0" d="M175.1,55.2v-7.4l0,0c0-5.9-4.8-10.7-10.7-10.7h-23.9c-5.9,0-10.7,4.8-10.7,10.7l0,0v7.4l5.4-0.8v-5.6l0,0
		c0-4.5,3.6-6.4,8.1-6.4h18.2c4.5,0,8.1,1.9,8.1,6.4l0,0v5.6L175.1,55.2z"/>
	<path class="st0" d="M176.1,56.3l-7.4-1v-6.5c0-4.7-4.5-5.4-7.1-5.4h-18.2c-2.7,0-7.1,0.7-7.1,5.4v6.5l-7.4,1v-8.6
		c0-6.5,5.2-11.7,11.7-11.7h23.9c6.4,0,11.7,5.2,11.7,11.7V56.3z M140.6,38.1c-5.3,0-9.7,4.4-9.7,9.7V54l3.4-0.5v-4.8
		c0-4.6,3.4-7.4,9.1-7.4h18.2c5.7,0,9.1,2.7,9.1,7.4v4.8l3.4,0.5v-6.3c0-5.3-4.3-9.7-9.7-9.7H140.6z"/>
</g>
<g>
	<path class="st0" d="M111.6,55.2v-7.4l0,0c0-5.9-4.8-10.7-10.7-10.7H77.1c-5.9,0-10.7,4.8-10.7,10.7l0,0v7.4l5.4-0.8v-5.6l0,0
		c0-4.5,3.6-6.4,8.1-6.4h18.2c4.5,0,8.1,1.9,8.1,6.4l0,0v5.6L111.6,55.2z"/>
	<path class="st0" d="M112.6,56.3l-7.4-1v-6.5c0-4.7-4.5-5.4-7.1-5.4H79.9c-2.7,0-7.1,0.7-7.1,5.4v6.5l-7.4,1v-8.6
		c0-6.5,5.2-11.7,11.7-11.7h23.9c6.4,0,11.7,5.2,11.7,11.7V56.3z M77.1,38.1c-5.3,0-9.7,4.4-9.7,9.7V54l3.4-0.5v-4.8
		c0-4.6,3.4-7.4,9.1-7.4h18.2c5.7,0,9.1,2.7,9.1,7.4v4.8l3.4,0.5v-6.3c0-5.3-4.3-9.7-9.7-9.7H77.1z"/>
</g>
</svg>
