<?xml version="1.0" encoding="utf-8"?>
<!-- Generator: Adobe Illustrator 24.0.1, SVG Export Plug-In . SVG Version: 6.00 Build 0)  -->
<svg version="1.1" id="Calque_1" xmlns="http://www.w3.org/2000/svg" xmlns:xlink="http://www.w3.org/1999/xlink" x="0px" y="0px"
	 viewBox="0 0 277.5 197.9" style="enable-background:new 0 0 277.5 197.9;" xml:space="preserve">
<style type="text/css">
	.st0{fill:#FFFFFF;}
</style>
<path class="st0" d="M277.3,39.8c0-20.3-7.3-30-13.5-34.6c-5.7-4.5-13.2-6-20.2-4.2c-13,3.7-21.1,19.5-24.5,27.5
	c-0.6-0.2-1.1-0.4-1.8-0.6c-7.1-2-15-5.1-23.4-8.4c-17.3-6.8-37-14.4-55.2-14.4c-20.1,0-43.5,9.2-62.2,16.5
	c-6.1,2.4-11.8,4.7-16.6,6.3c-0.5,0.2-0.9,0.4-1.4,0.6C55.1,20.6,46.9,4.7,33.9,1c-7-1.8-14.5-0.3-20.2,4.2
	C7.6,9.8,0.3,19.5,0.3,39.8c0,31.2,38.4,91.6,40.1,94.3c5.5,16.2,11.4,30,14.5,33.2c17.6,17.9,58.3,30.3,83.8,30.3
	s66.3-12.5,83.8-30.3c3.1-3.2,9.3-17.4,15-33.7C241,128,277.3,70.1,277.3,39.8z M246,9.3c4.4-1.1,9.1-0.1,12.6,2.7
	c6.5,4.9,10,14.7,10,27.7c0,15.1-10.7,39.1-20.8,58.4c1.2-4.9,1.9-9.9,2.2-15c0.4-16.9-9.7-39.9-23.3-50.4
	C229.6,25.2,236.8,11.9,246,9.3z M8.9,39.8c0-13,3.5-22.9,10-27.7c3.5-2.8,8.2-3.8,12.6-2.7C40.7,12,47.8,25.3,51,32.9
	c-12.9,9.8-23,29.7-23,47.6c0.3,6.6,1.2,13.1,2.8,19.5C20.2,80.3,8.9,55.4,8.9,39.8z M216.3,161.4c-13.9,14.3-51.5,27.7-77.5,27.7
	c-26.3,0-63.3-13.2-77.6-27.8c-4.3-4.6-24.6-60.6-24.6-80.9c0-18,13-39.9,26.1-44.3c5-1.7,10.8-4,17.1-6.5c17.9-7,40.5-15.9,59-15.9
	c16.6,0,34.6,7,52.1,13.8c8.7,3.3,16.6,6.5,24.2,8.7c1.4,0.4,2.8,1,4,1.8l0.6,0.3c11.4,7.3,22.1,28.2,21.6,44.6
	C240.9,102.8,220.4,157,216.3,161.4L216.3,161.4z"/>
<path class="st0" d="M185.6,116.9c-0.3,0-32.5,5.9-46.8,5.9S92.3,117,92,116.9c-2.4-0.4-4.6,1.1-5,3.5s1.1,4.6,3.5,5
	c1.4,0.2,33.2,6,48.4,6s47-5.8,48.4-6c2.4-0.4,3.9-2.7,3.5-5C190.2,118,187.9,116.5,185.6,116.9L185.6,116.9z M185.6,88.8
	c-0.3,0-32.5,5.9-46.8,5.9S92.3,88.9,92,88.8c-2.4-0.4-4.6,1.1-5,3.5s1.1,4.6,3.5,5c1.4,0.2,33.2,6,48.4,6s47-5.8,48.4-6
	c2.4-0.4,3.9-2.7,3.5-5C190.2,89.9,187.9,88.3,185.6,88.8L185.6,88.8z M185.6,60.7c-0.3,0-32.5,5.9-46.8,5.9S92.3,60.8,92,60.7
	c-2.4-0.4-4.6,1.1-5,3.5s1.1,4.6,3.5,5c1.4,0.2,33.2,6,48.4,6s47-5.8,48.4-6c2.4-0.4,3.9-2.7,3.5-5
	C190.2,61.7,187.9,60.2,185.6,60.7L185.6,60.7z"/>
</svg>
